# xmcd CD database file
#
# Track frame offsets:
#	183
#	57558
#	80883
#	115933
#	162895
#	176160
#	208683
#	238400
#	280985
#	311145
#
# Disc length: 4297 seconds
#
# Revision: 0
# Processed by: cddbd v1.5.2PL0 Copyright (c) Steve Scherf et al.
# Submitted via: CDex 1.51
#
DISCID=9c10c70a
DTITLE=Nexus - The Preacher and the Ghost
DYEAR=1991
DGENRE=Jazz
TTITLE0=When Ornette meets the Ghost
TTITLE1=We play spaces
TTITLE2=Song for a day of happiness
TTITLE3=2-3-3-4-3-2
TTITLE4=Street Music
TTITLE5=Hallucination I
TTITLE6=White Hallucination (for J. Pollock)
TTITLE7=The Spaced Out Dancer
TTITLE8=Peyote Drum Song (solo-ritual)
TTITLE9=We love you
EXTD=YEAR: 1991
EXTT0=
EXTT1=
EXTT2=
EXTT3=
EXTT4=
EXTT5=
EXTT6=
EXTT7=
EXTT8=
EXTT9=
PLAYORDER=
